<?xml version="1.0" standalone="no"?>
<!DOCTYPE svg PUBLIC "-//W3C//DTD SVG 20010904//EN"
 "http://www.w3.org/TR/2001/REC-SVG-20010904/DTD/svg10.dtd">
<svg version="1.0" xmlns="http://www.w3.org/2000/svg"
 width="300.000000pt" height="300.000000pt" viewBox="0 0 300.000000 300.000000"
 preserveAspectRatio="xMidYMid meet">

<g transform="translate(0.000000,300.000000) scale(0.100000,-0.100000)"
fill="#000000" stroke="none">
<path d="M1150 2591 c0 -5 -57 -107 -126 -227 -69 -121 -297 -518 -507 -884
-209 -366 -384 -672 -389 -680 -8 -12 17 -62 96 -199 58 -101 106 -187 106
-192 0 -5 380 -9 900 -9 713 0 900 3 900 13 0 6 -47 93 -104 192 l-104 180
-679 5 -680 5 266 465 c402 703 544 950 547 947 1 -1 139 -240 306 -532 167
-291 401 -698 518 -902 l214 -373 213 0 c157 0 213 3 213 12 0 6 -35 73 -78
147 -86 148 -280 486 -816 1419 -190 332 -346 608 -346 613 0 5 -93 9 -225 9
-124 0 -225 -4 -225 -9z"/>
</g>
</svg>
